<?xml version="1.0" encoding="utf-8"?>
<!-- Generator: Adobe Illustrator 19.1.1, SVG Export Plug-In . SVG Version: 6.00 Build 0)  -->
<svg version="1.1" id="Layer_1" xmlns="http://www.w3.org/2000/svg" xmlns:xlink="http://www.w3.org/1999/xlink" x="0px" y="0px"
	 width="608px" height="187px" viewBox="0 0 608 187" style="enable-background:new 0 0 608 187;" xml:space="preserve">
<style type="text/css">
	.st0{fill:url(#SVGID_1_);}
	.st1{fill:url(#SVGID_2_);}
	.st2{fill:url(#SVGID_3_);}
	.st3{fill:url(#SVGID_4_);}
	.st4{fill:url(#SVGID_5_);}
	.st5{fill:url(#SVGID_6_);}
	.st6{fill:url(#SVGID_7_);}
	.st7{fill:url(#SVGID_8_);}
	.st8{fill:url(#SVGID_9_);}
	.st9{fill:url(#SVGID_10_);}
	.st10{fill:url(#SVGID_11_);}
	.st11{fill:url(#SVGID_12_);}
	.st12{fill:url(#SVGID_13_);}
	.st13{fill:url(#SVGID_14_);}
	.st14{fill:url(#SVGID_15_);}
	.st15{fill:url(#SVGID_16_);}
	.st16{fill:url(#SVGID_17_);}
	.st17{fill:url(#SVGID_18_);}
	.st18{fill:url(#SVGID_19_);}
	.st19{fill:url(#SVGID_20_);}
	.st20{fill:url(#SVGID_21_);}
	.st21{fill:url(#SVGID_22_);}
</style>
<g>
	<linearGradient id="SVGID_1_" gradientUnits="userSpaceOnUse" x1="0.6396" y1="75.415" x2="578.6396" y2="236.415">
		<stop  offset="0" style="stop-color:#FFE6A1"/>
		<stop  offset="0.2578" style="stop-color:#C7FCE4"/>
		<stop  offset="0.4808" style="stop-color:#B4E2FA"/>
		<stop  offset="0.7108" style="stop-color:#E0C0FA"/>
		<stop  offset="1" style="stop-color:#FAC8F5"/>
	</linearGradient>
	<polygon class="st0" points="257.9,116.5 247.4,152.9 233.1,116.5 232,116.5 217.5,152.9 207.2,116.5 202,116.5 216.3,167.5 
		217.3,167.5 232.6,129.3 247.6,167.5 248.5,167.5 263,116.5 	"/>
	<linearGradient id="SVGID_2_" gradientUnits="userSpaceOnUse" x1="2.0207" y1="70.4569" x2="580.0206" y2="231.4569">
		<stop  offset="0" style="stop-color:#FFE6A1"/>
		<stop  offset="0.2578" style="stop-color:#C7FCE4"/>
		<stop  offset="0.4808" style="stop-color:#B4E2FA"/>
		<stop  offset="0.7108" style="stop-color:#E0C0FA"/>
		<stop  offset="1" style="stop-color:#FAC8F5"/>
	</linearGradient>
	<path class="st1" d="M297.4,135.9c-3.8-4.8-8.9-7.1-15.3-7.1c-6.2,0-11.1,2.4-14.8,7.1c-2.9,3.7-4.4,8-4.4,12.7
		c0,5,1.7,9.6,5.2,13.6c3.4,4,8.2,6,14.3,6c2.8,0,5.2-0.4,7.4-1.3c2.2-0.8,4.1-2.1,5.9-3.7c1.7-1.6,3.3-3.7,4.6-6.3l-4.1-2.1
		c-1.5,2.4-2.8,4.2-4.1,5.3c-1.3,1.1-2.8,2-4.6,2.6c-1.8,0.7-3.7,1-5.6,1c-3.9,0-7.3-1.6-9.9-4.4c-2.7-2.8-4.1-5.9-4.2-10.9h33.6
		C301.5,143.5,300.1,139.4,297.4,135.9z M268.4,144.5c1-3,2.4-5.9,4.4-7.6c2.6-2.4,5.8-3.5,9.5-3.5c2.2,0,4.3,0.5,6.4,1.4
		c2,0.9,3.6,2.1,4.9,3.6c1.2,1.5,2.2,4,2.8,6H268.4z"/>
	<linearGradient id="SVGID_3_" gradientUnits="userSpaceOnUse" x1="6.0837" y1="55.8702" x2="584.0837" y2="216.8702">
		<stop  offset="0" style="stop-color:#FFE6A1"/>
		<stop  offset="0.2578" style="stop-color:#C7FCE4"/>
		<stop  offset="0.4808" style="stop-color:#B4E2FA"/>
		<stop  offset="0.7108" style="stop-color:#E0C0FA"/>
		<stop  offset="1" style="stop-color:#FAC8F5"/>
	</linearGradient>
	<path class="st2" d="M330.6,128.9c-3,0-5.5,0.6-8,1.8c-2.5,1.2-4.6,3.1-6.6,5.5v-20.8h-5v52h5v-7.1c2,2.6,3.9,4.6,6.4,5.9
		c2.5,1.3,5.1,2,8.2,2c5.3,0,9.8-1.9,13.6-5.7c3.8-3.8,5.6-8.4,5.6-13.8c0-5.5-1.9-10.1-5.6-14C340.4,130.8,335.9,128.9,330.6,128.9
		z M342.8,156.1c-1.3,2.4-3.1,4.2-5.4,5.5c-2.3,1.3-4.7,2-7.4,2c-4.2,0-7.7-1.5-10.5-4.4c-2.8-2.9-4.3-6.5-4.3-10.9
		c0-2.8,0.6-5.4,1.9-7.7c1.3-2.3,3.1-4.1,5.4-5.4c2.4-1.3,4.9-2,7.5-2c2.6,0,5,0.7,7.3,2s4.1,3.2,5.4,5.6s2,4.9,2,7.6
		C344.9,151.2,344.2,153.7,342.8,156.1z"/>
	<linearGradient id="SVGID_4_" gradientUnits="userSpaceOnUse" x1="11.3883" y1="36.8265" x2="589.3883" y2="197.8265">
		<stop  offset="0" style="stop-color:#FFE6A1"/>
		<stop  offset="0.2578" style="stop-color:#C7FCE4"/>
		<stop  offset="0.4808" style="stop-color:#B4E2FA"/>
		<stop  offset="0.7108" style="stop-color:#E0C0FA"/>
		<stop  offset="1" style="stop-color:#FAC8F5"/>
	</linearGradient>
	<path class="st3" d="M405.7,118.4c-3.4-1.2-8.9-1.9-16.5-1.9H379v51h15.8c6.3,0,11.2-1,14.7-2.9c3.5-1.8,6.3-4.7,8.5-8.6
		c2.2-3.8,3.3-8.3,3.3-13.4c0-5.9-1.4-11-4.1-15.2C414.4,123.2,410.6,120.1,405.7,118.4z M412.9,154.5c-2.2,3.2-5.2,5.5-9,6.7
		c-2.7,0.9-7.5,1.3-14.5,1.3H384v-41h3.2c7.3,0,12.5,0.6,15.6,1.5c4.2,1.3,7.5,3.7,9.9,7.1c2.4,3.5,3.5,7.6,3.5,12.5
		C416.2,147.3,415.1,151.3,412.9,154.5z"/>
	<linearGradient id="SVGID_5_" gradientUnits="userSpaceOnUse" x1="13.7964" y1="28.1811" x2="591.7964" y2="189.1811">
		<stop  offset="0" style="stop-color:#FFE6A1"/>
		<stop  offset="0.2578" style="stop-color:#C7FCE4"/>
		<stop  offset="0.4808" style="stop-color:#B4E2FA"/>
		<stop  offset="0.7108" style="stop-color:#E0C0FA"/>
		<stop  offset="1" style="stop-color:#FAC8F5"/>
	</linearGradient>
	<path class="st4" d="M461,135.9c-3.8-4.8-8.9-7.1-15.3-7.1c-6.2,0-11.1,2.4-14.8,7.1c-2.9,3.7-4.4,8-4.4,12.7c0,5,1.7,9.6,5.2,13.6
		c3.4,4,8.2,6,14.3,6c2.8,0,5.2-0.4,7.4-1.3c2.2-0.8,4.1-2.1,5.9-3.7c1.7-1.6,3.3-3.7,4.6-6.3l-4.1-2.1c-1.5,2.4-2.8,4.2-4.1,5.3
		c-1.3,1.1-2.8,2-4.6,2.6c-1.8,0.7-3.7,1-5.6,1c-3.9,0-7.3-1.6-9.9-4.4c-2.7-2.8-4.1-5.9-4.2-10.9h33.6
		C465,143.5,463.7,139.4,461,135.9z M431.9,144.5c1-3,2.4-5.9,4.4-7.6c2.6-2.4,5.8-3.5,9.5-3.5c2.2,0,4.3,0.5,6.4,1.4
		c2,0.9,3.6,2.1,4.9,3.6c1.2,1.5,2.2,4,2.8,6H431.9z"/>
	<linearGradient id="SVGID_6_" gradientUnits="userSpaceOnUse" x1="16.3728" y1="18.9319" x2="594.3727" y2="179.9319">
		<stop  offset="0" style="stop-color:#FFE6A1"/>
		<stop  offset="0.2578" style="stop-color:#C7FCE4"/>
		<stop  offset="0.4808" style="stop-color:#B4E2FA"/>
		<stop  offset="0.7108" style="stop-color:#E0C0FA"/>
		<stop  offset="1" style="stop-color:#FAC8F5"/>
	</linearGradient>
	<path class="st5" d="M483.7,146c-2.9-1.5-4.9-2.8-5.8-4c-0.9-1.1-1.4-2.3-1.4-3.5c0-1.4,0.6-2.6,1.7-3.6c1.1-1,2.5-1.5,4-1.5
		c2.5,0,5,1.2,7.5,3.7l3.1-3.2c-3.5-3.4-7-5-10.4-5c-3,0-5.4,0.9-7.3,2.8c-1.9,1.9-2.9,4.2-2.9,7.1c0,2.2,0.6,4.1,1.8,5.8
		c1.2,1.7,3.5,3.4,6.9,5.2c3.1,1.6,5.2,2.9,6.1,4c0.9,1.1,1.3,2.3,1.3,3.7c0,1.7-0.7,3.1-2,4.4c-1.4,1.2-3,1.9-4.9,1.9
		c-2.8,0-5.4-1.4-7.8-4.2l-3,3.4c1.3,1.6,2.9,2.9,4.9,3.9c2,0.9,4,1.4,6.2,1.4c3.2,0,5.9-1.1,8.1-3.2c2.2-2.1,3.2-4.7,3.2-7.8
		c0-2.2-0.6-4.1-1.9-5.9C489.7,149.6,487.3,147.8,483.7,146z"/>
	<linearGradient id="SVGID_7_" gradientUnits="userSpaceOnUse" x1="17.9186" y1="13.3822" x2="595.9186" y2="174.3822">
		<stop  offset="0" style="stop-color:#FFE6A1"/>
		<stop  offset="0.2578" style="stop-color:#C7FCE4"/>
		<stop  offset="0.4808" style="stop-color:#B4E2FA"/>
		<stop  offset="0.7108" style="stop-color:#E0C0FA"/>
		<stop  offset="1" style="stop-color:#FAC8F5"/>
	</linearGradient>
	<rect x="501" y="129.5" class="st6" width="4" height="38"/>
	<linearGradient id="SVGID_8_" gradientUnits="userSpaceOnUse" x1="25.6879" y1="-14.5099" x2="603.6879" y2="146.4901">
		<stop  offset="0" style="stop-color:#FFE6A1"/>
		<stop  offset="0.2578" style="stop-color:#C7FCE4"/>
		<stop  offset="0.4808" style="stop-color:#B4E2FA"/>
		<stop  offset="0.7108" style="stop-color:#E0C0FA"/>
		<stop  offset="1" style="stop-color:#FAC8F5"/>
	</linearGradient>
	<path class="st7" d="M503,114.5c-1.1,0-2,0.4-2.8,1.2c-0.8,0.8-1.2,1.7-1.2,2.8c0,1.1,0.4,2,1.2,2.8c0.8,0.8,1.7,1.2,2.8,1.2
		c1.1,0,2-0.4,2.8-1.2c0.8-0.8,1.2-1.7,1.2-2.8c0-1.1-0.4-2-1.2-2.8C505.1,114.9,504.1,114.5,503,114.5z"/>
	<linearGradient id="SVGID_9_" gradientUnits="userSpaceOnUse" x1="18.7622" y1="10.3537" x2="596.7622" y2="171.3537">
		<stop  offset="0" style="stop-color:#FFE6A1"/>
		<stop  offset="0.2578" style="stop-color:#C7FCE4"/>
		<stop  offset="0.4808" style="stop-color:#B4E2FA"/>
		<stop  offset="0.7108" style="stop-color:#E0C0FA"/>
		<stop  offset="1" style="stop-color:#FAC8F5"/>
	</linearGradient>
	<path class="st8" d="M548,136.4c-3-2.7-4.7-4.6-7.2-5.7c-2.4-1.2-5.1-1.7-7.9-1.7c-3.4,0-6.6,0.9-9.7,2.6c-3,1.7-5.4,4.1-7.2,7.1
		c-1.7,3-2.6,6.2-2.6,9.7c0,3.5,0.8,6.6,2.5,9.5c1.7,2.9,4,5.2,7,6.9c3,1.7,6.3,2.6,9.7,2.6c2.9,0,5.9-0.6,8.5-1.8
		c2.6-1.2,4.8-3,6.8-5.3v1.9c0,4.1-0.6,7.1-1.6,9c-1,1.8-2.7,3.4-4.9,4.6c-2.3,1.2-5.1,1.8-8.3,1.8c-3.3,0-6.1-0.4-8.4-1.6
		c-2.2-1.2-4.1-3.3-5.5-5.3H514c1.4,3,2.8,5,4.4,6.5c1.6,1.5,3.7,2.7,6.2,3.6c2.6,0.9,5.4,1.3,8.6,1.3c4.4,0,8.1-0.9,11.2-2.8
		c3.1-1.9,5.1-4.5,6.3-7.9c0.9-2.4,1.1-6.3,1.1-11.5v-30.2h-4V136.4z M543.9,158.7c-2.7,2.7-6.2,4-10.7,4c-4.4,0-7.9-1.3-10.7-4
		c-2.7-2.7-4.1-6.1-4.1-10.2c0-2.7,0.7-5.2,2-7.5c1.3-2.3,3.2-4.1,5.5-5.5c2.3-1.3,4.9-2,7.6-2c2.6,0,5,0.6,7.3,1.9
		c2.3,1.3,4,3,5.3,5.2c1.2,2.2,1.9,4.7,1.9,7.5C547.9,152.6,546.6,156.1,543.9,158.7z"/>
	<linearGradient id="SVGID_10_" gradientUnits="userSpaceOnUse" x1="23.0554" y1="-5.0593" x2="601.0554" y2="155.9407">
		<stop  offset="0" style="stop-color:#FFE6A1"/>
		<stop  offset="0.2578" style="stop-color:#C7FCE4"/>
		<stop  offset="0.4808" style="stop-color:#B4E2FA"/>
		<stop  offset="0.7108" style="stop-color:#E0C0FA"/>
		<stop  offset="1" style="stop-color:#FAC8F5"/>
	</linearGradient>
	<path class="st9" d="M593.6,136.8c-1-2.4-2.5-4.3-4.7-5.7c-2.2-1.4-4.6-2.1-7.4-2.1c-2.7,0-5.1,0.6-7.4,1.9s-4.2,3.2-6.2,5.8v-7.1
		h-5v38h5v-14c0-4.9,0-8.3,0.5-10.2c0.7-2.8,2.1-5.2,4.5-7.1c2.3-1.9,4.9-2.9,7.8-2.9c2.5,0,4.6,0.6,6.2,1.9
		c1.6,1.2,2.8,3.1,3.4,5.6c0.4,1.4,0.7,4.3,0.7,8.6v18.1h4V148C595,142.9,594.7,139.2,593.6,136.8z"/>
	<linearGradient id="SVGID_11_" gradientUnits="userSpaceOnUse" x1="8.6542" y1="46.642" x2="586.6542" y2="207.642">
		<stop  offset="0" style="stop-color:#FFE6A1"/>
		<stop  offset="0.2578" style="stop-color:#C7FCE4"/>
		<stop  offset="0.4808" style="stop-color:#B4E2FA"/>
		<stop  offset="0.7108" style="stop-color:#E0C0FA"/>
		<stop  offset="1" style="stop-color:#FAC8F5"/>
	</linearGradient>
	<path class="st10" d="M142.8,40.6c-34.4,54.6-38.2,57.9-85.7,99.9c55.2,1.4,56.1,19.1,70.6,28.9c19.9-7.1,45.5-29.7,48.8-100.2
		c2.3-50.8,3.6-55.2,10.9-62.4C162.1,13.1,151.2,27.3,142.8,40.6z"/>
	<linearGradient id="SVGID_12_" gradientUnits="userSpaceOnUse" x1="6.433" y1="54.6163" x2="584.433" y2="215.6163">
		<stop  offset="0" style="stop-color:#FFE6A1"/>
		<stop  offset="0.2578" style="stop-color:#C7FCE4"/>
		<stop  offset="0.4808" style="stop-color:#B4E2FA"/>
		<stop  offset="0.7108" style="stop-color:#E0C0FA"/>
		<stop  offset="1" style="stop-color:#FAC8F5"/>
	</linearGradient>
	<path class="st11" d="M134.4,22.8C117.1,37.3,79.8,59.4,16.3,59.7c15.2,16.9-21.6,27.3,24.9,72C99.4,85.7,127.3,37.2,134.4,22.8z"
		/>
	<linearGradient id="SVGID_13_" gradientUnits="userSpaceOnUse" x1="15.2131" y1="23.0953" x2="593.2131" y2="184.0953">
		<stop  offset="0" style="stop-color:#FFE6A1"/>
		<stop  offset="0.2578" style="stop-color:#C7FCE4"/>
		<stop  offset="0.4808" style="stop-color:#B4E2FA"/>
		<stop  offset="0.7108" style="stop-color:#E0C0FA"/>
		<stop  offset="1" style="stop-color:#FAC8F5"/>
	</linearGradient>
	<path class="st12" d="M113.3,24.5c-18.4,4-71.2,3.9-93.4-12c-8,0.1-20.1,23.7-9.7,35.2C68.8,53.8,112,29.5,113.3,24.5z"/>
	<linearGradient id="SVGID_14_" gradientUnits="userSpaceOnUse" x1="21.7765" y1="-0.468" x2="599.7766" y2="160.532">
		<stop  offset="0" style="stop-color:#FFE6A1"/>
		<stop  offset="0.2578" style="stop-color:#C7FCE4"/>
		<stop  offset="0.4808" style="stop-color:#B4E2FA"/>
		<stop  offset="0.7108" style="stop-color:#E0C0FA"/>
		<stop  offset="1" style="stop-color:#FAC8F5"/>
	</linearGradient>
	<polygon class="st13" points="210,53.5 237,53.5 237,45.5 210,45.5 210,15.5 247,15.5 247,7.5 202,7.5 202,104.5 210,104.5 	"/>
	<linearGradient id="SVGID_15_" gradientUnits="userSpaceOnUse" x1="20.7905" y1="3.0719" x2="598.7905" y2="164.0719">
		<stop  offset="0" style="stop-color:#FFE6A1"/>
		<stop  offset="0.2578" style="stop-color:#C7FCE4"/>
		<stop  offset="0.4808" style="stop-color:#B4E2FA"/>
		<stop  offset="0.7108" style="stop-color:#E0C0FA"/>
		<stop  offset="1" style="stop-color:#FAC8F5"/>
	</linearGradient>
	<path class="st14" d="M238.1,74.9c0,8.6,2.9,15.9,8.8,21.9c5.9,6,12.9,9,21.2,9c4.7,0,9.2-1,13.1-2.9c3.9-1.9,6.8-4.8,10.8-8.6
		v10.2h7v-59h-7v11.1c-3-4.1-6.6-7.1-10.5-9.2c-3.9-2-8.3-3.1-13.1-3.1c-8.3,0-15.5,3-21.4,9C241.1,59.3,238.1,66.5,238.1,74.9z
		 M257.3,54.7c3.5-2.1,7.4-3.1,11.6-3.1c6.5,0,12,2.3,16.4,6.8s6.7,10.2,6.7,17c0,4.4-1,8.4-3,12c-2,3.5-4.8,6.3-8.5,8.4
		c-3.7,2.1-7.6,3.1-11.7,3.1c-4.1,0-7.9-1-11.5-3.1c-3.6-2.1-6.4-5-8.5-8.8c-2.1-3.8-3.2-7.7-3.2-11.8c0-4.1,1-8.1,3.1-11.8
		C250.9,59.7,253.8,56.8,257.3,54.7z"/>
	<linearGradient id="SVGID_16_" gradientUnits="userSpaceOnUse" x1="36.81" y1="-54.4389" x2="614.81" y2="106.5611">
		<stop  offset="0" style="stop-color:#FFE6A1"/>
		<stop  offset="0.2578" style="stop-color:#C7FCE4"/>
		<stop  offset="0.4808" style="stop-color:#B4E2FA"/>
		<stop  offset="0.7108" style="stop-color:#E0C0FA"/>
		<stop  offset="1" style="stop-color:#FAC8F5"/>
	</linearGradient>
	<path class="st15" d="M318.5,30.2c1.7,0,3.2-0.6,4.4-1.8c1.2-1.2,1.8-2.7,1.8-4.4c0-1.7-0.6-3.2-1.8-4.4c-1.2-1.2-2.7-1.8-4.4-1.8
		c-1.7,0-3.1,0.6-4.3,1.8c-1.2,1.2-1.8,2.7-1.8,4.4c0,1.7,0.6,3.1,1.8,4.4C315.3,29.6,316.8,30.2,318.5,30.2z"/>
	<linearGradient id="SVGID_17_" gradientUnits="userSpaceOnUse" x1="23.6334" y1="-7.1341" x2="601.6334" y2="153.8659">
		<stop  offset="0" style="stop-color:#FFE6A1"/>
		<stop  offset="0.2578" style="stop-color:#C7FCE4"/>
		<stop  offset="0.4808" style="stop-color:#B4E2FA"/>
		<stop  offset="0.7108" style="stop-color:#E0C0FA"/>
		<stop  offset="1" style="stop-color:#FAC8F5"/>
	</linearGradient>
	<rect x="315" y="45.5" class="st16" width="7" height="59"/>
	<linearGradient id="SVGID_18_" gradientUnits="userSpaceOnUse" x1="30.654" y1="-32.3386" x2="608.654" y2="128.6614">
		<stop  offset="0" style="stop-color:#FFE6A1"/>
		<stop  offset="0.2578" style="stop-color:#C7FCE4"/>
		<stop  offset="0.4808" style="stop-color:#B4E2FA"/>
		<stop  offset="0.7108" style="stop-color:#E0C0FA"/>
		<stop  offset="1" style="stop-color:#FAC8F5"/>
	</linearGradient>
	<polygon class="st17" points="350,6.5 342,6.5 342,45.5 331,45.5 331,53.5 342,53.5 342,104.5 350,104.5 350,53.5 362,53.5 
		362,45.5 350,45.5 	"/>
	<linearGradient id="SVGID_19_" gradientUnits="userSpaceOnUse" x1="32.8713" y1="-40.2988" x2="610.8713" y2="120.7012">
		<stop  offset="0" style="stop-color:#FFE6A1"/>
		<stop  offset="0.2578" style="stop-color:#C7FCE4"/>
		<stop  offset="0.4808" style="stop-color:#B4E2FA"/>
		<stop  offset="0.7108" style="stop-color:#E0C0FA"/>
		<stop  offset="1" style="stop-color:#FAC8F5"/>
	</linearGradient>
	<path class="st18" d="M412.2,47.7c-3.4-2.2-7.3-3.3-11.6-3.3c-4.3,0-8.1,1-11.7,3s-6.9,5-9.9,9V5.5h-8v99h8V82.9
		c0-7.7,0.2-13,0.9-15.9c1.1-4.4,3.4-8.2,7-11.2c3.6-3,7.6-4.5,12.2-4.5c4,0,7.2,1,9.6,2.9c2.5,2,4.3,4.9,5.3,8.7
		c0.5,2.3,1,6.8,1,13.5v28.1h7V74.2c0-8-0.7-13.8-2.4-17.6C418,52.9,415.6,49.9,412.2,47.7z"/>
	<linearGradient id="SVGID_20_" gradientUnits="userSpaceOnUse" x1="37.4434" y1="-56.713" x2="615.4434" y2="104.287">
		<stop  offset="0" style="stop-color:#FFE6A1"/>
		<stop  offset="0.2578" style="stop-color:#C7FCE4"/>
		<stop  offset="0.4808" style="stop-color:#B4E2FA"/>
		<stop  offset="0.7108" style="stop-color:#E0C0FA"/>
		<stop  offset="1" style="stop-color:#FAC8F5"/>
	</linearGradient>
	<path class="st19" d="M465.6,44.4c-4.7,0-9,1-12.9,2.9c-3.9,1.9-7.7,4.8-10.7,8.7V5.5h-7v99h7V93.6c3,4.1,6.5,7.1,10.4,9.2
		c3.9,2,8.2,3.1,13,3.1c8.3,0,15.4-3,21.3-9c5.9-6,8.9-13.2,8.9-21.6c0-8.6-2.9-15.8-8.8-21.8C480.9,47.4,473.9,44.4,465.6,44.4z
		 M484.8,86.8c-2.1,3.7-4.9,6.6-8.4,8.7c-3.5,2.1-7.4,3.1-11.6,3.1c-6.5,0-12-2.3-16.4-6.8c-4.4-4.5-6.7-10.2-6.7-17
		c0-4.4,1-8.4,3-12c2-3.5,4.8-6.4,8.5-8.5s7.6-3.1,11.7-3.1c4,0,7.8,1,11.4,3.1s6.4,5,8.5,8.8c2.1,3.8,3.2,7.7,3.2,11.9
		C487.9,79.1,486.9,83.1,484.8,86.8z"/>
	<linearGradient id="SVGID_21_" gradientUnits="userSpaceOnUse" x1="39.0411" y1="-62.4488" x2="617.0411" y2="98.5512">
		<stop  offset="0" style="stop-color:#FFE6A1"/>
		<stop  offset="0.2578" style="stop-color:#C7FCE4"/>
		<stop  offset="0.4808" style="stop-color:#B4E2FA"/>
		<stop  offset="0.7108" style="stop-color:#E0C0FA"/>
		<stop  offset="1" style="stop-color:#FAC8F5"/>
	</linearGradient>
	<path class="st20" d="M532.9,44.4c-9,0-16.5,3.3-22.4,9.8c-5.4,5.9-8.1,13-8.1,21.1c0,8.2,2.8,15.3,8.5,21.4c5.7,6.1,13,9.2,22,9.2
		c8.9,0,16.2-3.1,21.9-9.2c5.7-6.1,8.5-13.2,8.5-21.4c0-8.1-2.7-15.2-8.1-21.1C549.4,47.6,541.9,44.4,532.9,44.4z M552.7,87.2
		c-2,3.7-4.8,6.5-8.3,8.5c-3.5,2-7.3,3-11.5,3c-4.2,0-8-1-11.5-3c-3.5-2-6.3-4.8-8.3-8.5c-2-3.7-3.1-7.6-3.1-11.8
		c0-6.6,2.2-12.1,6.7-16.8s9.9-6.9,16.1-6.9c6.2,0,11.6,2.3,16.1,6.9c4.5,4.6,6.8,10.2,6.8,16.8C555.8,79.6,554.7,83.6,552.7,87.2z"
		/>
	<linearGradient id="SVGID_22_" gradientUnits="userSpaceOnUse" x1="47.6104" y1="-93.2132" x2="625.6104" y2="67.7868">
		<stop  offset="0" style="stop-color:#FFE6A1"/>
		<stop  offset="0.2578" style="stop-color:#C7FCE4"/>
		<stop  offset="0.4808" style="stop-color:#B4E2FA"/>
		<stop  offset="0.7108" style="stop-color:#E0C0FA"/>
		<stop  offset="1" style="stop-color:#FAC8F5"/>
	</linearGradient>
	<polygon class="st21" points="578,104.5 585,104.5 585,53.5 597,53.5 597,45.5 585,45.5 585,6.5 578,6.5 578,45.5 567,45.5 
		567,53.5 578,53.5 	"/>
</g>
</svg>
